<svg width="16" height="16" viewBox="0 0 16 16" fill="none" xmlns="http://www.w3.org/2000/svg">
<g clip-path="url(#clip0_19_14337)">
<path d="M8.00016 14.6666C11.6821 14.6666 14.6668 11.6818 14.6668 7.99992C14.6668 4.31802 11.6821 1.33325 8.00016 1.33325C4.31826 1.33325 1.3335 4.31802 1.3335 7.99992C1.3335 11.6818 4.31826 14.6666 8.00016 14.6666Z" stroke="#475569" stroke-linecap="round" stroke-linejoin="round"/>
<path d="M6.06006 6.00014C6.21679 5.55458 6.52616 5.17887 6.93336 4.93956C7.34056 4.70024 7.81932 4.61276 8.28484 4.69261C8.75036 4.77246 9.1726 5.01449 9.47678 5.37582C9.78095 5.73716 9.94743 6.19448 9.94673 6.6668C9.94673 8.00014 7.94673 8.6668 7.94673 8.6668" stroke="#475569" stroke-linecap="round" stroke-linejoin="round"/>
<path d="M8 11.3333H8.00667" stroke="#475569" stroke-linecap="round" stroke-linejoin="round"/>
</g>
<defs>
<clipPath id="clip0_19_14337">
<rect width="16" height="16" fill="white"/>
</clipPath>
</defs>
</svg>
